<svg width="2601" height="1000" viewBox="0 0 2601 1000" fill="none" xmlns="http://www.w3.org/2000/svg">
<path d="M2500.39 500C2404.79 700 2309.29 900 2200.29 900C2091.49 900 1995.89 700 1900.19 500C1804.49 300 1709.19 100 1600.29 100C1545.79 100 1494.69 150 1445.19 225C1395.69 300 1300.39 500 1300.39 500C1204.79 700 1109.29 900 1000.29 900C891.494 900 795.894 700 700.194 500C604.494 300 509.194 100 400.294 100C345.794 100 294.694 150 245.194 225C195.694 300 100.394 500 100.394 500" stroke="black" stroke-width="10" stroke-linecap="round"/>
<circle cx="2505.38" cy="491.221" r="4.98975" fill="#E3CE17"/>
</svg>
