<?xml version="1.0" encoding="utf-8"?>
<!-- Generator: Adobe Illustrator 26.0.0, SVG Export Plug-In . SVG Version: 6.00 Build 0)  -->
<svg version="1.1" id="Layer_1" text-rendering="geometricPrecision" shape-rendering="geometricPrecision"
	 xmlns="http://www.w3.org/2000/svg" xmlns:xlink="http://www.w3.org/1999/xlink" x="0px" y="0px" viewBox="0 0 3800 1000"
	 style="enable-background:new 0 0 3800 1000;" xml:space="preserve">
<path style="fill:none;stroke:#000000;stroke-width:10;stroke-linecap:round;" d="M3700,500c-95.6,200-191.1,400-300.1,400
	c-108.8,0-204.4-200-300.1-400s-191-400-299.9-400c-54.5,0-105.6,50-155.1,125S2500,500,2500,500c-95.6,200-191.1,400-300.1,400
	c-108.8,0-204.4-200-300.1-400s-191-400-299.9-400c-54.5,0-105.6,50-155.1,125c-49.5,75-144.8,275-144.8,275
	c-95.6,200-191.1,400-300.1,400c-108.8,0-204.4-200-300.1-400s-191-400-299.9-400c-54.5,0-105.6,50-155.1,125S100,500,100,500"/>
<path style="fill:#0000FF;" d="M3678,478c32.1-24.5,68.4,11.8,44,44C3689.8,546.4,3653.6,510.1,3678,478z"/>
</svg>
